<svg xmlns="http://www.w3.org/2000/svg" width="860" height="220" viewBox="0 0 860 220" font-family="ui-monospace,SFMono-Regular,Menlo,Consolas,monospace">
<style>.c{opacity:0;animation:in .5s ease-out forwards}@keyframes in{from{opacity:0;transform:translateY(-6px)}to{opacity:1;transform:none}}.m{fill:#7d8590;font-size:10px}.t{fill:#e6edf3;font-size:13px}</style>
<rect width="860" height="220" rx="10" fill="#0d1117" stroke="#30363d"/>
<text x="42" y="30" class="t"><tspan fill="#39d353">websboy10@github</tspan> ~ $ ./contributions.sh</text>
<text x="72" y="54" class="m">Oct</text><text x="132" y="54" class="m">Nov</text><text x="207" y="54" class="m">Dec</text><text x="267" y="54" class="m">Jan</text><text x="327" y="54" class="m">Feb</text><text x="387" y="54" class="m">Mar</text><text x="462" y="54" class="m">Apr</text><text x="522" y="54" class="m">May</text><text x="597" y="54" class="m">Jun</text><text x="657" y="54" class="m">Jul</text><text x="717" y="54" class="m">Aug</text><text x="792" y="54" class="m">Sep</text><text x="8" y="87" class="m">Mon</text><text x="8" y="117" class="m">Wed</text><text x="8" y="147" class="m">Fri</text><rect class="c" x="42" y="62" width="12" height="12" rx="3" fill="#161b22" style="animation-delay:0.00s"/><rect class="c" x="42" y="77" width="12" height="12" rx="3" fill="#161b22" style="animation-delay:0.04s"/><rect class="c" x="42" y="92" width="12" height="12" rx="3" fill="#161b22" style="animation-delay:0.07s"/><rect class="c" x="42" y="107" width="12" height="12" rx="3" fill="#161b22" style="animation-delay:0.11s"/><rect class="c" x="42" y="122" width="12" height="12" rx="3" fill="#161b22" style="animation-delay:0.14s"/><rect class="c" x="42" y="137" width="12" height="12" rx="3" fill="#161b22" style="animation-delay:0.18s"/><rect class="c" x="42" y="152" width="12" height="12" rx="3" fill="#161b22" style="animation-delay:0.21s"/><rect class="c" x="57" y="62" width="12" height="12" rx="3" fill="#161b22" style="animation-delay:0.04s"/><rect class="c" x="57" y="77" width="12" height="12" rx="3" fill="#161b22" style="animation-delay:0.07s"/><rect class="c" x="57" y="92" width="12" height="12" rx="3" fill="#161b22" style="animation-delay:0.11s"/><rect class="c" x="57" y="107" width="12" height="12" rx="3" fill="#161b22" style="animation-delay:0.14s"/><rect class="c" x="57" y="122" width="12" height="12" rx="3" fill="#161b22" style="animation-delay:0.18s"/><rect class="c" x="57" y="137" width="12" height="12" rx="3" fill="#161b22" style="animation-delay:0.21s"/><rect class="c" x="57" y="152" width="12" height="12" rx="3" fill="#0e4429" style="animation-delay:0.25s"/><rect class="c" x="72" y="62" width="12" height="12" rx="3" fill="#161b22" style="animation-delay:0.07s"/><rect class="c" x="72" y="77" width="12" height="12" rx="3" fill="#161b22" style="animation-delay:0.11s"/><rect class="c" x="72" y="92" width="12" height="12" rx="3" fill="#161b22" style="animation-delay:0.14s"/><rect class="c" x="72" y="107" width="12" height="12" rx="3" fill="#161b22" style="animation-delay:0.18s"/><rect class="c" x="72" y="122" width="12" height="12" rx="3" fill="#161b22" style="animation-delay:0.21s"/><rect class="c" x="72" y="137" width="12" height="12" rx="3" fill="#161b22" style="animation-delay:0.25s"/><rect class="c" x="72" y="152" width="12" height="12" rx="3" fill="#161b22" style="animation-delay:0.28s"/><rect class="c" x="87" y="62" width="12" height="12" rx="3" fill="#161b22" style="animation-delay:0.11s"/><rect class="c" x="87" y="77" width="12" height="12" rx="3" fill="#161b22" style="animation-delay:0.14s"/><rect class="c" x="87" y="92" width="12" height="12" rx="3" fill="#161b22" style="animation-delay:0.18s"/><rect class="c" x="87" y="107" width="12" height="12" rx="3" fill="#161b22" style="animation-delay:0.21s"/><rect class="c" x="87" y="122" width="12" height="12" rx="3" fill="#161b22" style="animation-delay:0.25s"/><rect class="c" x="87" y="137" width="12" height="12" rx="3" fill="#161b22" style="animation-delay:0.28s"/><rect class="c" x="87" y="152" width="12" height="12" rx="3" fill="#161b22" style="animation-delay:0.32s"/><rect class="c" x="102" y="62" width="12" height="12" rx="3" fill="#161b22" style="animation-delay:0.14s"/><rect class="c" x="102" y="77" width="12" height="12" rx="3" fill="#161b22" style="animation-delay:0.18s"/><rect class="c" x="102" y="92" width="12" height="12" rx="3" fill="#161b22" style="animation-delay:0.21s"/><rect class="c" x="102" y="107" width="12" height="12" rx="3" fill="#161b22" style="animation-delay:0.25s"/><rect class="c" x="102" y="122" width="12" height="12" rx="3" fill="#0e4429" style="animation-delay:0.28s"/><rect class="c" x="102" y="137" width="12" height="12" rx="3" fill="#0e4429" style="animation-delay:0.32s"/><rect class="c" x="102" y="152" width="12" height="12" rx="3" fill="#161b22" style="animation-delay:0.35s"/><rect class="c" x="117" y="62" width="12" height="12" rx="3" fill="#161b22" style="animation-delay:0.18s"/><rect class="c" x="117" y="77" width="12" height="12" rx="3" fill="#161b22" style="animation-delay:0.21s"/><rect class="c" x="117" y="92" width="12" height="12" rx="3" fill="#161b22" style="animation-delay:0.25s"/><rect class="c" x="117" y="107" width="12" height="12" rx="3" fill="#161b22" style="animation-delay:0.28s"/><rect class="c" x="117" y="122" width="12" height="12" rx="3" fill="#161b22" style="animation-delay:0.32s"/><rect class="c" x="117" y="137" width="12" height="12" rx="3" fill="#161b22" style="animation-delay:0.35s"/><rect class="c" x="117" y="152" width="12" height="12" rx="3" fill="#161b22" style="animation-delay:0.39s"/><rect class="c" x="132" y="62" width="12" height="12" rx="3" fill="#161b22" style="animation-delay:0.21s"/><rect class="c" x="132" y="77" width="12" height="12" rx="3" fill="#161b22" style="animation-delay:0.25s"/><rect class="c" x="132" y="92" width="12" height="12" rx="3" fill="#161b22" style="animation-delay:0.28s"/><rect class="c" x="132" y="107" width="12" height="12" rx="3" fill="#161b22" style="animation-delay:0.32s"/><rect class="c" x="132" y="122" width="12" height="12" rx="3" fill="#161b22" style="animation-delay:0.35s"/><rect class="c" x="132" y="137" width="12" height="12" rx="3" fill="#161b22" style="animation-delay:0.39s"/><rect class="c" x="132" y="152" width="12" height="12" rx="3" fill="#161b22" style="animation-delay:0.42s"/><rect class="c" x="147" y="62" width="12" height="12" rx="3" fill="#161b22" style="animation-delay:0.25s"/><rect class="c" x="147" y="77" width="12" height="12" rx="3" fill="#161b22" style="animation-delay:0.28s"/><rect class="c" x="147" y="92" width="12" height="12" rx="3" fill="#161b22" style="animation-delay:0.32s"/><rect class="c" x="147" y="107" width="12" height="12" rx="3" fill="#161b22" style="animation-delay:0.35s"/><rect class="c" x="147" y="122" width="12" height="12" rx="3" fill="#161b22" style="animation-delay:0.39s"/><rect class="c" x="147" y="137" width="12" height="12" rx="3" fill="#161b22" style="animation-delay:0.42s"/><rect class="c" x="147" y="152" width="12" height="12" rx="3" fill="#161b22" style="animation-delay:0.46s"/><rect class="c" x="162" y="62" width="12" height="12" rx="3" fill="#161b22" style="animation-delay:0.28s"/><rect class="c" x="162" y="77" width="12" height="12" rx="3" fill="#161b22" style="animation-delay:0.32s"/><rect class="c" x="162" y="92" width="12" height="12" rx="3" fill="#161b22" style="animation-delay:0.35s"/><rect class="c" x="162" y="107" width="12" height="12" rx="3" fill="#161b22" style="animation-delay:0.39s"/><rect class="c" x="162" y="122" width="12" height="12" rx="3" fill="#161b22" style="animation-delay:0.42s"/><rect class="c" x="162" y="137" width="12" height="12" rx="3" fill="#161b22" style="animation-delay:0.46s"/><rect class="c" x="162" y="152" width="12" height="12" rx="3" fill="#161b22" style="animation-delay:0.49s"/><rect class="c" x="177" y="62" width="12" height="12" rx="3" fill="#161b22" style="animation-delay:0.32s"/><rect class="c" x="177" y="77" width="12" height="12" rx="3" fill="#161b22" style="animation-delay:0.35s"/><rect class="c" x="177" y="92" width="12" height="12" rx="3" fill="#161b22" style="animation-delay:0.39s"/><rect class="c" x="177" y="107" width="12" height="12" rx="3" fill="#161b22" style="animation-delay:0.42s"/><rect class="c" x="177" y="122" width="12" height="12" rx="3" fill="#0e4429" style="animation-delay:0.46s"/><rect class="c" x="177" y="137" width="12" height="12" rx="3" fill="#161b22" style="animation-delay:0.49s"/><rect class="c" x="177" y="152" width="12" height="12" rx="3" fill="#0e4429" style="animation-delay:0.53s"/><rect class="c" x="192" y="62" width="12" height="12" rx="3" fill="#161b22" style="animation-delay:0.35s"/><rect class="c" x="192" y="77" width="12" height="12" rx="3" fill="#161b22" style="animation-delay:0.39s"/><rect class="c" x="192" y="92" width="12" height="12" rx="3" fill="#161b22" style="animation-delay:0.42s"/><rect class="c" x="192" y="107" width="12" height="12" rx="3" fill="#161b22" style="animation-delay:0.46s"/><rect class="c" x="192" y="122" width="12" height="12" rx="3" fill="#161b22" style="animation-delay:0.49s"/><rect class="c" x="192" y="137" width="12" height="12" rx="3" fill="#161b22" style="animation-delay:0.53s"/><rect class="c" x="192" y="152" width="12" height="12" rx="3" fill="#161b22" style="animation-delay:0.56s"/><rect class="c" x="207" y="62" width="12" height="12" rx="3" fill="#0e4429" style="animation-delay:0.39s"/><rect class="c" x="207" y="77" width="12" height="12" rx="3" fill="#161b22" style="animation-delay:0.42s"/><rect class="c" x="207" y="92" width="12" height="12" rx="3" fill="#161b22" style="animation-delay:0.46s"/><rect class="c" x="207" y="107" width="12" height="12" rx="3" fill="#161b22" style="animation-delay:0.49s"/><rect class="c" x="207" y="122" width="12" height="12" rx="3" fill="#161b22" style="animation-delay:0.53s"/><rect class="c" x="207" y="137" width="12" height="12" rx="3" fill="#161b22" style="animation-delay:0.56s"/><rect class="c" x="207" y="152" width="12" height="12" rx="3" fill="#161b22" style="animation-delay:0.60s"/><rect class="c" x="222" y="62" width="12" height="12" rx="3" fill="#161b22" style="animation-delay:0.42s"/><rect class="c" x="222" y="77" width="12" height="12" rx="3" fill="#161b22" style="animation-delay:0.46s"/><rect class="c" x="222" y="92" width="12" height="12" rx="3" fill="#161b22" style="animation-delay:0.49s"/><rect class="c" x="222" y="107" width="12" height="12" rx="3" fill="#161b22" style="animation-delay:0.53s"/><rect class="c" x="222" y="122" width="12" height="12" rx="3" fill="#161b22" style="animation-delay:0.56s"/><rect class="c" x="222" y="137" width="12" height="12" rx="3" fill="#161b22" style="animation-delay:0.60s"/><rect class="c" x="222" y="152" width="12" height="12" rx="3" fill="#161b22" style="animation-delay:0.63s"/><rect class="c" x="237" y="62" width="12" height="12" rx="3" fill="#0e4429" style="animation-delay:0.46s"/><rect class="c" x="237" y="77" width="12" height="12" rx="3" fill="#161b22" style="animation-delay:0.49s"/><rect class="c" x="237" y="92" width="12" height="12" rx="3" fill="#161b22" style="animation-delay:0.53s"/><rect class="c" x="237" y="107" width="12" height="12" rx="3" fill="#161b22" style="animation-delay:0.56s"/><rect class="c" x="237" y="122" width="12" height="12" rx="3" fill="#161b22" style="animation-delay:0.60s"/><rect class="c" x="237" y="137" width="12" height="12" rx="3" fill="#161b22" style="animation-delay:0.63s"/><rect class="c" x="237" y="152" width="12" height="12" rx="3" fill="#161b22" style="animation-delay:0.67s"/><rect class="c" x="252" y="62" width="12" height="12" rx="3" fill="#0e4429" style="animation-delay:0.49s"/><rect class="c" x="252" y="77" width="12" height="12" rx="3" fill="#0e4429" style="animation-delay:0.53s"/><rect class="c" x="252" y="92" width="12" height="12" rx="3" fill="#0e4429" style="animation-delay:0.56s"/><rect class="c" x="252" y="107" width="12" height="12" rx="3" fill="#161b22" style="animation-delay:0.60s"/><rect class="c" x="252" y="122" width="12" height="12" rx="3" fill="#0e4429" style="animation-delay:0.63s"/><rect class="c" x="252" y="137" width="12" height="12" rx="3" fill="#0e4429" style="animation-delay:0.67s"/><rect class="c" x="252" y="152" width="12" height="12" rx="3" fill="#0e4429" style="animation-delay:0.70s"/><rect class="c" x="267" y="62" width="12" height="12" rx="3" fill="#0e4429" style="animation-delay:0.53s"/><rect class="c" x="267" y="77" width="12" height="12" rx="3" fill="#161b22" style="animation-delay:0.56s"/><rect class="c" x="267" y="92" width="12" height="12" rx="3" fill="#161b22" style="animation-delay:0.60s"/><rect class="c" x="267" y="107" width="12" height="12" rx="3" fill="#161b22" style="animation-delay:0.63s"/><rect class="c" x="267" y="122" width="12" height="12" rx="3" fill="#0e4429" style="animation-delay:0.67s"/><rect class="c" x="267" y="137" width="12" height="12" rx="3" fill="#161b22" style="animation-delay:0.70s"/><rect class="c" x="267" y="152" width="12" height="12" rx="3" fill="#0e4429" style="animation-delay:0.74s"/><rect class="c" x="282" y="62" width="12" height="12" rx="3" fill="#0e4429" style="animation-delay:0.56s"/><rect class="c" x="282" y="77" width="12" height="12" rx="3" fill="#0e4429" style="animation-delay:0.60s"/><rect class="c" x="282" y="92" width="12" height="12" rx="3" fill="#161b22" style="animation-delay:0.63s"/><rect class="c" x="282" y="107" width="12" height="12" rx="3" fill="#161b22" style="animation-delay:0.67s"/><rect class="c" x="282" y="122" width="12" height="12" rx="3" fill="#161b22" style="animation-delay:0.70s"/><rect class="c" x="282" y="137" width="12" height="12" rx="3" fill="#161b22" style="animation-delay:0.74s"/><rect class="c" x="282" y="152" width="12" height="12" rx="3" fill="#161b22" style="animation-delay:0.77s"/><rect class="c" x="297" y="62" width="12" height="12" rx="3" fill="#161b22" style="animation-delay:0.60s"/><rect class="c" x="297" y="77" width="12" height="12" rx="3" fill="#0e4429" style="animation-delay:0.63s"/><rect class="c" x="297" y="92" width="12" height="12" rx="3" fill="#161b22" style="animation-delay:0.67s"/><rect class="c" x="297" y="107" width="12" height="12" rx="3" fill="#0e4429" style="animation-delay:0.70s"/><rect class="c" x="297" y="122" width="12" height="12" rx="3" fill="#0e4429" style="animation-delay:0.74s"/><rect class="c" x="297" y="137" width="12" height="12" rx="3" fill="#161b22" style="animation-delay:0.77s"/><rect class="c" x="297" y="152" width="12" height="12" rx="3" fill="#0e4429" style="animation-delay:0.81s"/><rect class="c" x="312" y="62" width="12" height="12" rx="3" fill="#161b22" style="animation-delay:0.63s"/><rect class="c" x="312" y="77" width="12" height="12" rx="3" fill="#0e4429" style="animation-delay:0.67s"/><rect class="c" x="312" y="92" width="12" height="12" rx="3" fill="#0e4429" style="animation-delay:0.70s"/><rect class="c" x="312" y="107" width="12" height="12" rx="3" fill="#0e4429" style="animation-delay:0.74s"/><rect class="c" x="312" y="122" width="12" height="12" rx="3" fill="#0e4429" style="animation-delay:0.77s"/><rect class="c" x="312" y="137" width="12" height="12" rx="3" fill="#161b22" style="animation-delay:0.81s"/><rect class="c" x="312" y="152" width="12" height="12" rx="3" fill="#161b22" style="animation-delay:0.84s"/><rect class="c" x="327" y="62" width="12" height="12" rx="3" fill="#161b22" style="animation-delay:0.67s"/><rect class="c" x="327" y="77" width="12" height="12" rx="3" fill="#161b22" style="animation-delay:0.70s"/><rect class="c" x="327" y="92" width="12" height="12" rx="3" fill="#161b22" style="animation-delay:0.74s"/><rect class="c" x="327" y="107" width="12" height="12" rx="3" fill="#0e4429" style="animation-delay:0.77s"/><rect class="c" x="327" y="122" width="12" height="12" rx="3" fill="#161b22" style="animation-delay:0.81s"/><rect class="c" x="327" y="137" width="12" height="12" rx="3" fill="#161b22" style="animation-delay:0.84s"/><rect class="c" x="327" y="152" width="12" height="12" rx="3" fill="#161b22" style="animation-delay:0.88s"/><rect class="c" x="342" y="62" width="12" height="12" rx="3" fill="#161b22" style="animation-delay:0.70s"/><rect class="c" x="342" y="77" width="12" height="12" rx="3" fill="#161b22" style="animation-delay:0.74s"/><rect class="c" x="342" y="92" width="12" height="12" rx="3" fill="#161b22" style="animation-delay:0.77s"/><rect class="c" x="342" y="107" width="12" height="12" rx="3" fill="#0e4429" style="animation-delay:0.81s"/><rect class="c" x="342" y="122" width="12" height="12" rx="3" fill="#161b22" style="animation-delay:0.84s"/><rect class="c" x="342" y="137" width="12" height="12" rx="3" fill="#161b22" style="animation-delay:0.88s"/><rect class="c" x="342" y="152" width="12" height="12" rx="3" fill="#161b22" style="animation-delay:0.91s"/><rect class="c" x="357" y="62" width="12" height="12" rx="3" fill="#161b22" style="animation-delay:0.74s"/><rect class="c" x="357" y="77" width="12" height="12" rx="3" fill="#0e4429" style="animation-delay:0.77s"/><rect class="c" x="357" y="92" width="12" height="12" rx="3" fill="#161b22" style="animation-delay:0.81s"/><rect class="c" x="357" y="107" width="12" height="12" rx="3" fill="#161b22" style="animation-delay:0.84s"/><rect class="c" x="357" y="122" width="12" height="12" rx="3" fill="#161b22" style="animation-delay:0.88s"/><rect class="c" x="357" y="137" width="12" height="12" rx="3" fill="#161b22" style="animation-delay:0.91s"/><rect class="c" x="357" y="152" width="12" height="12" rx="3" fill="#161b22" style="animation-delay:0.95s"/><rect class="c" x="372" y="62" width="12" height="12" rx="3" fill="#161b22" style="animation-delay:0.77s"/><rect class="c" x="372" y="77" width="12" height="12" rx="3" fill="#161b22" style="animation-delay:0.81s"/><rect class="c" x="372" y="92" width="12" height="12" rx="3" fill="#0e4429" style="animation-delay:0.84s"/><rect class="c" x="372" y="107" width="12" height="12" rx="3" fill="#161b22" style="animation-delay:0.88s"/><rect class="c" x="372" y="122" width="12" height="12" rx="3" fill="#161b22" style="animation-delay:0.91s"/><rect class="c" x="372" y="137" width="12" height="12" rx="3" fill="#161b22" style="animation-delay:0.95s"/><rect class="c" x="372" y="152" width="12" height="12" rx="3" fill="#161b22" style="animation-delay:0.98s"/><rect class="c" x="387" y="62" width="12" height="12" rx="3" fill="#161b22" style="animation-delay:0.81s"/><rect class="c" x="387" y="77" width="12" height="12" rx="3" fill="#161b22" style="animation-delay:0.84s"/><rect class="c" x="387" y="92" width="12" height="12" rx="3" fill="#161b22" style="animation-delay:0.88s"/><rect class="c" x="387" y="107" width="12" height="12" rx="3" fill="#161b22" style="animation-delay:0.91s"/><rect class="c" x="387" y="122" width="12" height="12" rx="3" fill="#161b22" style="animation-delay:0.95s"/><rect class="c" x="387" y="137" width="12" height="12" rx="3" fill="#161b22" style="animation-delay:0.98s"/><rect class="c" x="387" y="152" width="12" height="12" rx="3" fill="#161b22" style="animation-delay:1.02s"/><rect class="c" x="402" y="62" width="12" height="12" rx="3" fill="#161b22" style="animation-delay:0.84s"/><rect class="c" x="402" y="77" width="12" height="12" rx="3" fill="#161b22" style="animation-delay:0.88s"/><rect class="c" x="402" y="92" width="12" height="12" rx="3" fill="#161b22" style="animation-delay:0.91s"/><rect class="c" x="402" y="107" width="12" height="12" rx="3" fill="#161b22" style="animation-delay:0.95s"/><rect class="c" x="402" y="122" width="12" height="12" rx="3" fill="#161b22" style="animation-delay:0.98s"/><rect class="c" x="402" y="137" width="12" height="12" rx="3" fill="#161b22" style="animation-delay:1.02s"/><rect class="c" x="402" y="152" width="12" height="12" rx="3" fill="#161b22" style="animation-delay:1.05s"/><rect class="c" x="417" y="62" width="12" height="12" rx="3" fill="#161b22" style="animation-delay:0.88s"/><rect class="c" x="417" y="77" width="12" height="12" rx="3" fill="#161b22" style="animation-delay:0.91s"/><rect class="c" x="417" y="92" width="12" height="12" rx="3" fill="#161b22" style="animation-delay:0.95s"/><rect class="c" x="417" y="107" width="12" height="12" rx="3" fill="#161b22" style="animation-delay:0.98s"/><rect class="c" x="417" y="122" width="12" height="12" rx="3" fill="#161b22" style="animation-delay:1.02s"/><rect class="c" x="417" y="137" width="12" height="12" rx="3" fill="#161b22" style="animation-delay:1.05s"/><rect class="c" x="417" y="152" width="12" height="12" rx="3" fill="#161b22" style="animation-delay:1.09s"/><rect class="c" x="432" y="62" width="12" height="12" rx="3" fill="#0e4429" style="animation-delay:0.91s"/><rect class="c" x="432" y="77" width="12" height="12" rx="3" fill="#0e4429" style="animation-delay:0.95s"/><rect class="c" x="432" y="92" width="12" height="12" rx="3" fill="#161b22" style="animation-delay:0.98s"/><rect class="c" x="432" y="107" width="12" height="12" rx="3" fill="#0e4429" style="animation-delay:1.02s"/><rect class="c" x="432" y="122" width="12" height="12" rx="3" fill="#161b22" style="animation-delay:1.05s"/><rect class="c" x="432" y="137" width="12" height="12" rx="3" fill="#0e4429" style="animation-delay:1.09s"/><rect class="c" x="432" y="152" width="12" height="12" rx="3" fill="#161b22" style="animation-delay:1.12s"/><rect class="c" x="447" y="62" width="12" height="12" rx="3" fill="#161b22" style="animation-delay:0.95s"/><rect class="c" x="447" y="77" width="12" height="12" rx="3" fill="#161b22" style="animation-delay:0.98s"/><rect class="c" x="447" y="92" width="12" height="12" rx="3" fill="#161b22" style="animation-delay:1.02s"/><rect class="c" x="447" y="107" width="12" height="12" rx="3" fill="#0e4429" style="animation-delay:1.05s"/><rect class="c" x="447" y="122" width="12" height="12" rx="3" fill="#161b22" style="animation-delay:1.09s"/><rect class="c" x="447" y="137" width="12" height="12" rx="3" fill="#0e4429" style="animation-delay:1.12s"/><rect class="c" x="447" y="152" width="12" height="12" rx="3" fill="#0e4429" style="animation-delay:1.16s"/><rect class="c" x="462" y="62" width="12" height="12" rx="3" fill="#0e4429" style="animation-delay:0.98s"/><rect class="c" x="462" y="77" width="12" height="12" rx="3" fill="#161b22" style="animation-delay:1.02s"/><rect class="c" x="462" y="92" width="12" height="12" rx="3" fill="#161b22" style="animation-delay:1.05s"/><rect class="c" x="462" y="107" width="12" height="12" rx="3" fill="#161b22" style="animation-delay:1.09s"/><rect class="c" x="462" y="122" width="12" height="12" rx="3" fill="#161b22" style="animation-delay:1.12s"/><rect class="c" x="462" y="137" width="12" height="12" rx="3" fill="#161b22" style="animation-delay:1.16s"/><rect class="c" x="462" y="152" width="12" height="12" rx="3" fill="#161b22" style="animation-delay:1.19s"/><rect class="c" x="477" y="62" width="12" height="12" rx="3" fill="#161b22" style="animation-delay:1.02s"/><rect class="c" x="477" y="77" width="12" height="12" rx="3" fill="#161b22" style="animation-delay:1.05s"/><rect class="c" x="477" y="92" width="12" height="12" rx="3" fill="#161b22" style="animation-delay:1.09s"/><rect class="c" x="477" y="107" width="12" height="12" rx="3" fill="#0e4429" style="animation-delay:1.12s"/><rect class="c" x="477" y="122" width="12" height="12" rx="3" fill="#161b22" style="animation-delay:1.16s"/><rect class="c" x="477" y="137" width="12" height="12" rx="3" fill="#161b22" style="animation-delay:1.19s"/><rect class="c" x="477" y="152" width="12" height="12" rx="3" fill="#161b22" style="animation-delay:1.23s"/><rect class="c" x="492" y="62" width="12" height="12" rx="3" fill="#161b22" style="animation-delay:1.05s"/><rect class="c" x="492" y="77" width="12" height="12" rx="3" fill="#0e4429" style="animation-delay:1.09s"/><rect class="c" x="492" y="92" width="12" height="12" rx="3" fill="#0e4429" style="animation-delay:1.12s"/><rect class="c" x="492" y="107" width="12" height="12" rx="3" fill="#0e4429" style="animation-delay:1.16s"/><rect class="c" x="492" y="122" width="12" height="12" rx="3" fill="#0e4429" style="animation-delay:1.19s"/><rect class="c" x="492" y="137" width="12" height="12" rx="3" fill="#161b22" style="animation-delay:1.23s"/><rect class="c" x="492" y="152" width="12" height="12" rx="3" fill="#161b22" style="animation-delay:1.26s"/><rect class="c" x="507" y="62" width="12" height="12" rx="3" fill="#161b22" style="animation-delay:1.09s"/><rect class="c" x="507" y="77" width="12" height="12" rx="3" fill="#0e4429" style="animation-delay:1.12s"/><rect class="c" x="507" y="92" width="12" height="12" rx="3" fill="#0e4429" style="animation-delay:1.16s"/><rect class="c" x="507" y="107" width="12" height="12" rx="3" fill="#0e4429" style="animation-delay:1.19s"/><rect class="c" x="507" y="122" width="12" height="12" rx="3" fill="#161b22" style="animation-delay:1.23s"/><rect class="c" x="507" y="137" width="12" height="12" rx="3" fill="#161b22" style="animation-delay:1.26s"/><rect class="c" x="507" y="152" width="12" height="12" rx="3" fill="#0e4429" style="animation-delay:1.30s"/><rect class="c" x="522" y="62" width="12" height="12" rx="3" fill="#0e4429" style="animation-delay:1.12s"/><rect class="c" x="522" y="77" width="12" height="12" rx="3" fill="#161b22" style="animation-delay:1.16s"/><rect class="c" x="522" y="92" width="12" height="12" rx="3" fill="#161b22" style="animation-delay:1.19s"/><rect class="c" x="522" y="107" width="12" height="12" rx="3" fill="#0e4429" style="animation-delay:1.23s"/><rect class="c" x="522" y="122" width="12" height="12" rx="3" fill="#161b22" style="animation-delay:1.26s"/><rect class="c" x="522" y="137" width="12" height="12" rx="3" fill="#161b22" style="animation-delay:1.30s"/><rect class="c" x="522" y="152" width="12" height="12" rx="3" fill="#161b22" style="animation-delay:1.33s"/><rect class="c" x="537" y="62" width="12" height="12" rx="3" fill="#161b22" style="animation-delay:1.16s"/><rect class="c" x="537" y="77" width="12" height="12" rx="3" fill="#161b22" style="animation-delay:1.19s"/><rect class="c" x="537" y="92" width="12" height="12" rx="3" fill="#161b22" style="animation-delay:1.23s"/><rect class="c" x="537" y="107" width="12" height="12" rx="3" fill="#161b22" style="animation-delay:1.26s"/><rect class="c" x="537" y="122" width="12" height="12" rx="3" fill="#161b22" style="animation-delay:1.30s"/><rect class="c" x="537" y="137" width="12" height="12" rx="3" fill="#161b22" style="animation-delay:1.33s"/><rect class="c" x="537" y="152" width="12" height="12" rx="3" fill="#161b22" style="animation-delay:1.37s"/><rect class="c" x="552" y="62" width="12" height="12" rx="3" fill="#161b22" style="animation-delay:1.19s"/><rect class="c" x="552" y="77" width="12" height="12" rx="3" fill="#0e4429" style="animation-delay:1.23s"/><rect class="c" x="552" y="92" width="12" height="12" rx="3" fill="#006d32" style="animation-delay:1.26s"/><rect class="c" x="552" y="107" width="12" height="12" rx="3" fill="#0e4429" style="animation-delay:1.30s"/><rect class="c" x="552" y="122" width="12" height="12" rx="3" fill="#0e4429" style="animation-delay:1.33s"/><rect class="c" x="552" y="137" width="12" height="12" rx="3" fill="#161b22" style="animation-delay:1.37s"/><rect class="c" x="552" y="152" width="12" height="12" rx="3" fill="#161b22" style="animation-delay:1.40s"/><rect class="c" x="567" y="62" width="12" height="12" rx="3" fill="#161b22" style="animation-delay:1.23s"/><rect class="c" x="567" y="77" width="12" height="12" rx="3" fill="#161b22" style="animation-delay:1.26s"/><rect class="c" x="567" y="92" width="12" height="12" rx="3" fill="#161b22" style="animation-delay:1.30s"/><rect class="c" x="567" y="107" width="12" height="12" rx="3" fill="#161b22" style="animation-delay:1.33s"/><rect class="c" x="567" y="122" width="12" height="12" rx="3" fill="#161b22" style="animation-delay:1.37s"/><rect class="c" x="567" y="137" width="12" height="12" rx="3" fill="#161b22" style="animation-delay:1.40s"/><rect class="c" x="567" y="152" width="12" height="12" rx="3" fill="#161b22" style="animation-delay:1.44s"/><rect class="c" x="582" y="62" width="12" height="12" rx="3" fill="#0e4429" style="animation-delay:1.26s"/><rect class="c" x="582" y="77" width="12" height="12" rx="3" fill="#161b22" style="animation-delay:1.30s"/><rect class="c" x="582" y="92" width="12" height="12" rx="3" fill="#161b22" style="animation-delay:1.33s"/><rect class="c" x="582" y="107" width="12" height="12" rx="3" fill="#161b22" style="animation-delay:1.37s"/><rect class="c" x="582" y="122" width="12" height="12" rx="3" fill="#0e4429" style="animation-delay:1.40s"/><rect class="c" x="582" y="137" width="12" height="12" rx="3" fill="#161b22" style="animation-delay:1.44s"/><rect class="c" x="582" y="152" width="12" height="12" rx="3" fill="#161b22" style="animation-delay:1.47s"/><rect class="c" x="597" y="62" width="12" height="12" rx="3" fill="#161b22" style="animation-delay:1.30s"/><rect class="c" x="597" y="77" width="12" height="12" rx="3" fill="#161b22" style="animation-delay:1.33s"/><rect class="c" x="597" y="92" width="12" height="12" rx="3" fill="#161b22" style="animation-delay:1.37s"/><rect class="c" x="597" y="107" width="12" height="12" rx="3" fill="#161b22" style="animation-delay:1.40s"/><rect class="c" x="597" y="122" width="12" height="12" rx="3" fill="#161b22" style="animation-delay:1.44s"/><rect class="c" x="597" y="137" width="12" height="12" rx="3" fill="#0e4429" style="animation-delay:1.47s"/><rect class="c" x="597" y="152" width="12" height="12" rx="3" fill="#0e4429" style="animation-delay:1.51s"/><rect class="c" x="612" y="62" width="12" height="12" rx="3" fill="#0e4429" style="animation-delay:1.33s"/><rect class="c" x="612" y="77" width="12" height="12" rx="3" fill="#0e4429" style="animation-delay:1.37s"/><rect class="c" x="612" y="92" width="12" height="12" rx="3" fill="#0e4429" style="animation-delay:1.40s"/><rect class="c" x="612" y="107" width="12" height="12" rx="3" fill="#0e4429" style="animation-delay:1.44s"/><rect class="c" x="612" y="122" width="12" height="12" rx="3" fill="#161b22" style="animation-delay:1.47s"/><rect class="c" x="612" y="137" width="12" height="12" rx="3" fill="#161b22" style="animation-delay:1.51s"/><rect class="c" x="612" y="152" width="12" height="12" rx="3" fill="#161b22" style="animation-delay:1.54s"/><rect class="c" x="627" y="62" width="12" height="12" rx="3" fill="#161b22" style="animation-delay:1.37s"/><rect class="c" x="627" y="77" width="12" height="12" rx="3" fill="#161b22" style="animation-delay:1.40s"/><rect class="c" x="627" y="92" width="12" height="12" rx="3" fill="#0e4429" style="animation-delay:1.44s"/><rect class="c" x="627" y="107" width="12" height="12" rx="3" fill="#0e4429" style="animation-delay:1.47s"/><rect class="c" x="627" y="122" width="12" height="12" rx="3" fill="#0e4429" style="animation-delay:1.51s"/><rect class="c" x="627" y="137" width="12" height="12" rx="3" fill="#006d32" style="animation-delay:1.54s"/><rect class="c" x="627" y="152" width="12" height="12" rx="3" fill="#0e4429" style="animation-delay:1.58s"/><rect class="c" x="642" y="62" width="12" height="12" rx="3" fill="#0e4429" style="animation-delay:1.40s"/><rect class="c" x="642" y="77" width="12" height="12" rx="3" fill="#0e4429" style="animation-delay:1.44s"/><rect class="c" x="642" y="92" width="12" height="12" rx="3" fill="#0e4429" style="animation-delay:1.47s"/><rect class="c" x="642" y="107" width="12" height="12" rx="3" fill="#0e4429" style="animation-delay:1.51s"/><rect class="c" x="642" y="122" width="12" height="12" rx="3" fill="#0e4429" style="animation-delay:1.54s"/><rect class="c" x="642" y="137" width="12" height="12" rx="3" fill="#0e4429" style="animation-delay:1.58s"/><rect class="c" x="642" y="152" width="12" height="12" rx="3" fill="#0e4429" style="animation-delay:1.61s"/><rect class="c" x="657" y="62" width="12" height="12" rx="3" fill="#0e4429" style="animation-delay:1.44s"/><rect class="c" x="657" y="77" width="12" height="12" rx="3" fill="#0e4429" style="animation-delay:1.47s"/><rect class="c" x="657" y="92" width="12" height="12" rx="3" fill="#0e4429" style="animation-delay:1.51s"/><rect class="c" x="657" y="107" width="12" height="12" rx="3" fill="#161b22" style="animation-delay:1.54s"/><rect class="c" x="657" y="122" width="12" height="12" rx="3" fill="#0e4429" style="animation-delay:1.58s"/><rect class="c" x="657" y="137" width="12" height="12" rx="3" fill="#006d32" style="animation-delay:1.61s"/><rect class="c" x="657" y="152" width="12" height="12" rx="3" fill="#0e4429" style="animation-delay:1.65s"/><rect class="c" x="672" y="62" width="12" height="12" rx="3" fill="#0e4429" style="animation-delay:1.47s"/><rect class="c" x="672" y="77" width="12" height="12" rx="3" fill="#161b22" style="animation-delay:1.51s"/><rect class="c" x="672" y="92" width="12" height="12" rx="3" fill="#161b22" style="animation-delay:1.54s"/><rect class="c" x="672" y="107" width="12" height="12" rx="3" fill="#0e4429" style="animation-delay:1.58s"/><rect class="c" x="672" y="122" width="12" height="12" rx="3" fill="#0e4429" style="animation-delay:1.61s"/><rect class="c" x="672" y="137" width="12" height="12" rx="3" fill="#0e4429" style="animation-delay:1.65s"/><rect class="c" x="672" y="152" width="12" height="12" rx="3" fill="#0e4429" style="animation-delay:1.68s"/><rect class="c" x="687" y="62" width="12" height="12" rx="3" fill="#0e4429" style="animation-delay:1.51s"/><rect class="c" x="687" y="77" width="12" height="12" rx="3" fill="#161b22" style="animation-delay:1.54s"/><rect class="c" x="687" y="92" width="12" height="12" rx="3" fill="#161b22" style="animation-delay:1.58s"/><rect class="c" x="687" y="107" width="12" height="12" rx="3" fill="#161b22" style="animation-delay:1.61s"/><rect class="c" x="687" y="122" width="12" height="12" rx="3" fill="#161b22" style="animation-delay:1.65s"/><rect class="c" x="687" y="137" width="12" height="12" rx="3" fill="#161b22" style="animation-delay:1.68s"/><rect class="c" x="687" y="152" width="12" height="12" rx="3" fill="#161b22" style="animation-delay:1.72s"/><rect class="c" x="702" y="62" width="12" height="12" rx="3" fill="#161b22" style="animation-delay:1.54s"/><rect class="c" x="702" y="77" width="12" height="12" rx="3" fill="#161b22" style="animation-delay:1.58s"/><rect class="c" x="702" y="92" width="12" height="12" rx="3" fill="#161b22" style="animation-delay:1.61s"/><rect class="c" x="702" y="107" width="12" height="12" rx="3" fill="#0e4429" style="animation-delay:1.65s"/><rect class="c" x="702" y="122" width="12" height="12" rx="3" fill="#161b22" style="animation-delay:1.68s"/><rect class="c" x="702" y="137" width="12" height="12" rx="3" fill="#006d32" style="animation-delay:1.72s"/><rect class="c" x="702" y="152" width="12" height="12" rx="3" fill="#006d32" style="animation-delay:1.75s"/><rect class="c" x="717" y="62" width="12" height="12" rx="3" fill="#161b22" style="animation-delay:1.58s"/><rect class="c" x="717" y="77" width="12" height="12" rx="3" fill="#0e4429" style="animation-delay:1.61s"/><rect class="c" x="717" y="92" width="12" height="12" rx="3" fill="#0e4429" style="animation-delay:1.65s"/><rect class="c" x="717" y="107" width="12" height="12" rx="3" fill="#006d32" style="animation-delay:1.68s"/><rect class="c" x="717" y="122" width="12" height="12" rx="3" fill="#0e4429" style="animation-delay:1.72s"/><rect class="c" x="717" y="137" width="12" height="12" rx="3" fill="#0e4429" style="animation-delay:1.75s"/><rect class="c" x="717" y="152" width="12" height="12" rx="3" fill="#0e4429" style="animation-delay:1.79s"/><rect class="c" x="732" y="62" width="12" height="12" rx="3" fill="#0e4429" style="animation-delay:1.61s"/><rect class="c" x="732" y="77" width="12" height="12" rx="3" fill="#0e4429" style="animation-delay:1.65s"/><rect class="c" x="732" y="92" width="12" height="12" rx="3" fill="#0e4429" style="animation-delay:1.68s"/><rect class="c" x="732" y="107" width="12" height="12" rx="3" fill="#0e4429" style="animation-delay:1.72s"/><rect class="c" x="732" y="122" width="12" height="12" rx="3" fill="#0e4429" style="animation-delay:1.75s"/><rect class="c" x="732" y="137" width="12" height="12" rx="3" fill="#0e4429" style="animation-delay:1.79s"/><rect class="c" x="732" y="152" width="12" height="12" rx="3" fill="#161b22" style="animation-delay:1.82s"/><rect class="c" x="747" y="62" width="12" height="12" rx="3" fill="#0e4429" style="animation-delay:1.65s"/><rect class="c" x="747" y="77" width="12" height="12" rx="3" fill="#0e4429" style="animation-delay:1.68s"/><rect class="c" x="747" y="92" width="12" height="12" rx="3" fill="#0e4429" style="animation-delay:1.72s"/><rect class="c" x="747" y="107" width="12" height="12" rx="3" fill="#0e4429" style="animation-delay:1.75s"/><rect class="c" x="747" y="122" width="12" height="12" rx="3" fill="#0e4429" style="animation-delay:1.79s"/><rect class="c" x="747" y="137" width="12" height="12" rx="3" fill="#0e4429" style="animation-delay:1.82s"/><rect class="c" x="747" y="152" width="12" height="12" rx="3" fill="#161b22" style="animation-delay:1.86s"/><rect class="c" x="762" y="62" width="12" height="12" rx="3" fill="#0e4429" style="animation-delay:1.68s"/><rect class="c" x="762" y="77" width="12" height="12" rx="3" fill="#26a641" style="animation-delay:1.72s"/><rect class="c" x="762" y="92" width="12" height="12" rx="3" fill="#0e4429" style="animation-delay:1.75s"/><rect class="c" x="762" y="107" width="12" height="12" rx="3" fill="#0e4429" style="animation-delay:1.79s"/><rect class="c" x="762" y="122" width="12" height="12" rx="3" fill="#0e4429" style="animation-delay:1.82s"/><rect class="c" x="762" y="137" width="12" height="12" rx="3" fill="#006d32" style="animation-delay:1.86s"/><rect class="c" x="762" y="152" width="12" height="12" rx="3" fill="#0e4429" style="animation-delay:1.89s"/><rect class="c" x="777" y="62" width="12" height="12" rx="3" fill="#0e4429" style="animation-delay:1.72s"/><rect class="c" x="777" y="77" width="12" height="12" rx="3" fill="#0e4429" style="animation-delay:1.75s"/><rect class="c" x="777" y="92" width="12" height="12" rx="3" fill="#0e4429" style="animation-delay:1.79s"/><rect class="c" x="777" y="107" width="12" height="12" rx="3" fill="#0e4429" style="animation-delay:1.82s"/><rect class="c" x="777" y="122" width="12" height="12" rx="3" fill="#0e4429" style="animation-delay:1.86s"/><rect class="c" x="777" y="137" width="12" height="12" rx="3" fill="#0e4429" style="animation-delay:1.89s"/><rect class="c" x="777" y="152" width="12" height="12" rx="3" fill="#006d32" style="animation-delay:1.93s"/><rect class="c" x="792" y="62" width="12" height="12" rx="3" fill="#39d353" style="animation-delay:1.75s"/><rect class="c" x="792" y="77" width="12" height="12" rx="3" fill="#26a641" style="animation-delay:1.79s"/><rect class="c" x="792" y="92" width="12" height="12" rx="3" fill="#006d32" style="animation-delay:1.82s"/><rect class="c" x="792" y="107" width="12" height="12" rx="3" fill="#0e4429" style="animation-delay:1.86s"/><rect class="c" x="792" y="122" width="12" height="12" rx="3" fill="#0e4429" style="animation-delay:1.89s"/><rect class="c" x="792" y="137" width="12" height="12" rx="3" fill="#0e4429" style="animation-delay:1.93s"/><rect class="c" x="792" y="152" width="12" height="12" rx="3" fill="#0e4429" style="animation-delay:1.96s"/><rect class="c" x="807" y="62" width="12" height="12" rx="3" fill="#161b22" style="animation-delay:1.79s"/><rect class="c" x="807" y="77" width="12" height="12" rx="3" fill="#0e4429" style="animation-delay:1.82s"/><rect class="c" x="807" y="92" width="12" height="12" rx="3" fill="#0e4429" style="animation-delay:1.86s"/><rect class="c" x="807" y="107" width="12" height="12" rx="3" fill="#006d32" style="animation-delay:1.89s"/><rect class="c" x="807" y="122" width="12" height="12" rx="3" fill="#0e4429" style="animation-delay:1.93s"/><rect class="c" x="807" y="137" width="12" height="12" rx="3" fill="#161b22" style="animation-delay:1.96s"/><rect class="c" x="807" y="152" width="12" height="12" rx="3" fill="#161b22" style="animation-delay:2.00s"/><rect class="c" x="822" y="62" width="12" height="12" rx="3" fill="#161b22" style="animation-delay:1.82s"/><rect class="c" x="822" y="77" width="12" height="12" rx="3" fill="#006d32" style="animation-delay:1.86s"/><rect class="c" x="822" y="92" width="12" height="12" rx="3" fill="#0e4429" style="animation-delay:1.89s"/>
<text x="42" y="199" class="m">5,972 contributions in the last year · streak 2d · longest 21d</text>
<text x="670" y="199" class="m" text-anchor="end">Less</text><rect x="710" y="188" width="12" height="12" rx="3" fill="#161b22"/><rect x="726" y="188" width="12" height="12" rx="3" fill="#0e4429"/><rect x="742" y="188" width="12" height="12" rx="3" fill="#006d32"/><rect x="758" y="188" width="12" height="12" rx="3" fill="#26a641"/><rect x="774" y="188" width="12" height="12" rx="3" fill="#39d353"/><rect x="790" y="188" width="12" height="12" rx="3" fill="#69f0a0"/><text x="814" y="199" class="m">More</text>
</svg>